<svg width="512" height="512" viewBox="0 0 512 512" xmlns="http://www.w3.org/2000/svg" role="img" aria-labelledby="title">
  <title>Google icon</title>
  <g fill="none" fill-rule="evenodd">
    <path d="M256 100c43.9 0 83.4 15.5 114.5 45.7l-46.3 44.3c-18.8-18-42.7-27.9-68.2-27.9-52.6 0-96.9 35.5-112.8 83.2l-52.5-40.3C120.7 143.4 182.2 100 256 100z" fill="#EA4335"/>
    <path d="M118.7 205.1c-7.9 18.2-12.7 38.4-12.7 59.6 0 21.2 4.5 41.4 12.8 59.6l52.5-40.3c-3.1-9.5-4.8-19.6-4.8-30 0-10.3 1.7-20.3 4.7-29.7l-52.5-40.3z" fill="#FBBC04"/>
    <path d="M256 412c-73.8 0-135.3-43.4-163.3-105l52.5-40.3c15.8 47.7 60.2 83.2 112.8 83.2 28.5 0 54-9.9 74.1-26.5l45.9 44.9C339.2 394.5 300.1 412 256 412z" fill="#34A853"/>
    <path d="M418.9 262c0-8.9-.8-17.4-2.4-25.6H256v72.8h92.2c-4 21-16.2 38.5-34.6 50.7l45.9 44.9C395.9 373.7 418.9 323.2 418.9 262z" fill="#4285F4"/>
  </g>
</svg>
